<?xml version="1.0" encoding="iso-8859-1"?>
<!DOCTYPE svg PUBLIC "-//W3C//DTD SVG 1.1//EN" "http://www.w3.org/Graphics/SVG/1.1/DTD/svg11.dtd">
<svg 
 version="1.1" xmlns="http://www.w3.org/2000/svg" xmlns:xlink="http://www.w3.org/1999/xlink" x="0px" y="0px" width="512px"
	 height="512px" viewBox="0 0 512 512" style="enable-background:new 0 0 512 512;" xml:space="preserve"
><g id="afcae5a789ccd549f9c6e2a2f81b9aa2"><g></g><g fill="#052f5c"><path style="display: inline; fill-rule: evenodd; clip-rule: evenodd;" d="M511.5,274.748c0,9.408-7.627,17.033-17.033,17.033
		c-3.469,0-6.688-1.051-9.378-2.832c-3.314,6.908-7.099,15.309-10.671,24.42c-8.824,22.51-15.852,49.25-27.804,67.863
		c-11.673,18.164-34.994,18.434-34.994,18.434H256H100.379c0,0-23.321-0.27-34.99-18.434
		c-11.956-18.613-18.984-45.354-27.808-67.863c-3.568-9.111-7.356-17.512-10.667-24.42c-2.695,1.781-5.914,2.832-9.382,2.832
		c-9.406,0-17.033-7.625-17.033-17.033c0-9.406,7.627-17.033,17.033-17.033c9.407,0,17.033,7.627,17.033,17.033
		c0,0.1-0.029,0.201-0.029,0.301l40.292,10.32l-0.595-59.217c-0.17,0.004-0.324,0.05-0.491,0.05
		c-9.411,0-17.033-7.627-17.033-17.033c0-9.407,7.623-17.034,17.033-17.034c9.407,0,17.033,7.627,17.033,17.034
		c0,4.512-1.784,8.583-4.645,11.631l49.087,51.436l13.798-91.088c-7.065-2.079-12.251-8.533-12.251-16.268
		c0-9.407,7.627-17.033,17.033-17.033c9.407,0,17.034,7.626,17.034,17.033c0,6.637-3.834,12.326-9.369,15.137l52.726,79.869
		c0,0,11.859-24.261,21.358-53.92c6.803-21.225,12.841-44.746,16.567-60.053c-7.531-1.763-13.149-8.483-13.149-16.547
		c0-9.407,7.627-17.033,17.033-17.033s17.033,7.626,17.033,17.033c0,8.063-5.618,14.784-13.149,16.547
		c3.727,15.307,9.765,38.828,16.567,60.053c9.498,29.659,21.358,53.92,21.358,53.92l52.727-79.869
		c-5.535-2.811-9.369-8.5-9.369-15.137c0-9.407,7.626-17.033,17.033-17.033c9.406,0,17.033,7.626,17.033,17.033
		c0,7.735-5.186,14.189-12.251,16.268l13.798,91.088l49.087-51.436c-2.86-3.048-4.645-7.12-4.645-11.631
		c0-9.407,7.627-17.034,17.033-17.034c9.411,0,17.033,7.627,17.033,17.034c0,9.406-7.622,17.033-17.033,17.033
		c-0.166,0-0.32-0.046-0.486-0.05l-0.6,59.217l40.293-10.32c0-0.1-0.029-0.201-0.029-0.301c0-9.406,7.627-17.033,17.033-17.033
		S511.5,265.342,511.5,274.748z"></path></g></g></svg>